<svg width="40" height="40" viewBox="0 0 40 40" fill="none" xmlns="http://www.w3.org/2000/svg">
<rect width="40" height="40" fill="white"/>
<path fill-rule="evenodd" clip-rule="evenodd" d="M35.056 9.92192C35.3344 10.0333 35.5732 10.2258 35.7415 10.4745C35.9097 10.7232 35.9998 11.0168 36 11.3173V28.6831C35.9998 28.9836 35.9097 29.2772 35.7415 29.5259C35.5732 29.7746 35.3344 29.9671 35.056 30.0785L20.556 35.8925C20.1984 36.0358 19.7996 36.0358 19.442 35.8925L4.942 30.0785C4.66394 29.9668 4.42561 29.7742 4.25772 29.5255C4.08983 29.2768 4.00007 28.9834 4 28.6831V11.3173C4.00007 11.017 4.08983 10.7236 4.25772 10.4749C4.42561 10.2262 4.66394 10.0336 4.942 9.92192L18.886 4.33045L18.906 4.32443L19.442 4.10791C19.8002 3.96403 20.1998 3.96403 20.558 4.10791L21.096 4.32443L21.116 4.33045L35.056 9.92192ZM24.808 7.97122L12.5 12.9051L7.692 10.9785L6 11.6581V12.46L19 17.6726V33.5549L20 33.9558L21 33.5549V17.6746L34 12.462V11.6601L32.308 10.9805L20 15.9124L15.192 13.9857L27.5 9.05182L24.808 7.97122Z" fill="#E87D0D"/>
<path d="M28.5493 26.1006C30.2438 23.7881 31.0027 20.9209 30.6743 18.0728C30.3458 15.2247 28.9543 12.6056 26.778 10.7395C24.6017 8.87346 21.8011 7.89805 18.9366 8.00844C16.0721 8.11883 13.3549 9.30688 11.3287 11.3349C9.30239 13.3629 8.11646 16.0813 8.00813 18.9463C7.89981 21.8113 8.87708 24.6115 10.7444 26.7868C12.6118 28.962 15.2315 30.3519 18.0795 30.6784C20.9274 31.0048 23.7936 30.2437 26.1046 28.5474H26.1029C26.1542 28.6174 26.2114 28.6845 26.2744 28.7486L33.0116 35.4868C33.3398 35.8152 33.7849 35.9998 34.2491 36C34.7133 36.0002 35.1586 35.8159 35.4869 35.4877C35.8153 35.1595 35.9998 34.7144 36 34.2501C36.0002 33.7858 35.8159 33.3405 35.4878 33.0121L28.7505 26.2739C28.688 26.2105 28.6207 26.1538 28.5493 26.1006ZM29.0008 19.3729C29.0008 20.637 28.7518 21.8888 28.2682 23.0566C27.7845 24.2245 27.0755 25.2857 26.1818 26.1795C25.2881 27.0734 24.227 27.7824 23.0593 28.2662C21.8916 28.7499 20.6401 28.9989 19.3761 28.9989C18.1122 28.9989 16.8607 28.7499 15.693 28.2662C14.5252 27.7824 13.4642 27.0734 12.5705 26.1795C11.6768 25.2857 10.9678 24.2245 10.4841 23.0566C10.0005 21.8888 9.75151 20.637 9.75151 19.3729C9.75151 16.82 10.7655 14.3716 12.5705 12.5663C14.3755 10.7611 16.8235 9.74694 19.3761 9.74694C21.9288 9.74694 24.3768 10.7611 26.1818 12.5663C27.9868 14.3716 29.0008 16.82 29.0008 19.3729Z" fill="#3776AB"/>
</svg>
